<?xml version="1.0" encoding="UTF-8" standalone="no"?>
<!DOCTYPE svg PUBLIC "-//W3C//DTD SVG 1.1//EN" "http://www.w3.org/Graphics/SVG/1.1/DTD/svg11.dtd">
<svg width="100%" height="100%" viewBox="0 0 2239 1947" version="1.1" xmlns="http://www.w3.org/2000/svg" xmlns:xlink="http://www.w3.org/1999/xlink" xml:space="preserve" xmlns:serif="http://www.serif.com/" style="fill-rule:evenodd;clip-rule:evenodd;stroke-linejoin:round;stroke-miterlimit:2;">
    <g transform="matrix(1,0,0,1,-20210.671486,0)">
        <g id="Artboard1" transform="matrix(0.638265,0,0,0.784703,20210.671486,0)">
            <rect x="0" y="0" width="3507.874" height="2480.315" style="fill:none;"/>
            <clipPath id="_clip1">
                <rect x="0" y="0" width="3507.874" height="2480.315"/>
            </clipPath>
            <g clip-path="url(#_clip1)">
                <g transform="matrix(1.093308,0.912794,-1.122217,0.88928,-1525.430469,927.022556)">
                    <path d="M867.447,-2442.596L867.447,937.587L-2246.064,937.587L-2246.064,-2756.834L811.919,-2756.834C818.824,-2650.749 837.343,-2545.31 867.447,-2442.596Z" style="fill:rgb(255,228,94);"/>
                </g>
                <g transform="matrix(1.566746,0,0,1.274367,-604.706072,0)">
                    <rect x="0" y="0" width="3507.874" height="2480.315" style="fill:rgb(255,228,94);"/>
                </g>
                <g transform="matrix(1.566746,0,0,1.274367,-278.21409,33.195434)">
                    <circle cx="2634.667" cy="1833.007" r="921.468" style="fill:rgb(127,200,248);"/>
                </g>
                <g transform="matrix(1.566746,0,0,1.274367,-278.21409,33.195434)">
                    <path d="M1749.104,1577.638C1786.032,1449.525 1850.036,1332.839 1934.507,1234.187C2190.025,1460.855 2526.207,1598.567 2894.301,1598.567C3103.982,1598.567 3303.309,1553.88 3483.269,1473.52C3530.18,1584.001 3556.135,1705.497 3556.135,1833.007C3556.135,2149.407 3396.323,2428.776 3153.084,2594.727L1749.104,1577.638Z" style="fill:rgb(127,200,248);"/>
                </g>
                <g transform="matrix(5.161631,0,0,4.19839,-15583.371706,-8706.867655)">
                    <circle cx="2634.667" cy="1833.007" r="921.468" style="fill:rgb(90,169,230);"/>
                </g>
                <g transform="matrix(5.161631,0,0,4.19839,-15583.371706,-8706.867655)">
                    <path d="M3247.307,2120.338L3247.485,2120.165L3385.902,2366.47C3385.835,2366.564 3385.769,2366.657 3385.702,2366.75L3247.307,2120.338Z" style="fill:rgb(90,169,230);"/>
                </g>
                <g transform="matrix(5.161631,0,0,4.19839,-15583.371706,-8706.867655)">
                    <path d="M3163.53,2455.562L3002.32,2678.095C2889.67,2727.222 2765.326,2754.475 2634.667,2754.475C2126.095,2754.475 1713.199,2341.579 1713.199,1833.007C1713.199,1324.434 2126.095,911.538 2634.667,911.538C3130.944,911.538 3536.115,1304.712 3555.415,1796.295C3541.966,1808.007 3529.235,1820.524 3517.298,1833.771L2869.573,1168.919L2066.35,1951.451L2725.837,2628.375L3071.469,2291.647L3163.53,2455.562Z" style="fill:rgb(90,169,230);"/>
                </g>
                <g transform="matrix(1.566746,0,0,1.274367,-604.706072,0)">
                    <circle cx="3102.689" cy="177.307" r="1447.309" style="fill:rgb(255,99,146);"/>
                </g>
                <g transform="matrix(1.566746,0,0,1.274367,-604.706072,0)">
                    <path d="M1756.795,710.197C1691.355,545.243 1655.381,365.443 1655.381,177.307C1655.381,-258.185 1848.14,-649.011 2152.919,-914.432C2154.494,-874.31 2155.289,-833.99 2155.289,-793.485C2155.289,-246.553 2010.341,266.792 1756.795,710.197Z" style="fill:rgb(90,169,230);"/>
                </g>
                <g transform="matrix(1.566746,0,0,1.274367,-604.706072,0)">
                    <path d="M2142.896,1260.235C1974.517,1110.868 1841.167,922.871 1756.795,710.197C2010.341,266.792 2155.289,-246.553 2155.289,-793.485C2155.289,-833.99 2154.494,-874.31 2152.919,-914.432C2407.175,-1135.854 2739.39,-1270.002 3102.689,-1270.002C3901.481,-1270.002 4549.998,-621.485 4549.998,177.307C4549.998,766.417 4197.264,1273.791 3691.658,1499.568C3551.466,1169.395 3224.118,937.587 2843.055,937.587C2562.999,937.587 2311.955,1062.794 2142.896,1260.235Z" style="fill:rgb(255,99,146);"/>
                </g>
                <g transform="matrix(1.566746,0,0,1.274367,-604.706072,0)">
                    <path d="M2142.896,1260.235C2311.955,1062.794 2562.999,937.587 2843.055,937.587C3224.118,937.587 3551.466,1169.395 3691.658,1499.568C3511.698,1579.929 3312.371,1624.615 3102.689,1624.615C2734.596,1624.615 2398.413,1486.904 2142.896,1260.235Z" style="fill:rgb(90,169,230);"/>
                </g>
                <g transform="matrix(1.365846,-0.624327,0.953145,1.379557,-531.004004,1455.958763)">
                    <path d="M1436.438,485.19L1435.407,-538.51L2384.245,-467.73C2178.512,-367.184 2001.166,-223.917 1874.962,-43.068C1782.792,89.011 1726.068,229.43 1702.304,371.052C1615.903,412.7 1527.155,450.774 1436.438,485.19Z" style="fill:rgb(127,200,248);"/>
                </g>
                <g transform="matrix(2.151725,1.267887,-1.244092,1.396851,496.675818,-2574.782826)">
                    <path d="M1209.836,2561.237L1209.836,1624.615L1450.638,1624.615C1426.559,1952.79 1345.209,2273.483 1209.836,2561.237Z" style="fill:rgb(127,200,248);"/>
                </g>
                <g transform="matrix(2.151725,1.267887,-1.244092,1.396851,496.675818,-2574.782826)">
                    <path d="M2875.072,1624.615C2839.393,1748.956 2774.543,1861.603 2682.776,1944.898C2439.919,2165.333 2099.914,2097.256 1923.981,1792.97C1893.336,1739.968 1869.677,1683.273 1852.785,1624.615L2875.072,1624.615Z" style="fill:rgb(90,169,230);"/>
                </g>
                <g transform="matrix(0.856471,-0.668979,3.332126,2.822366,908.828052,653.112287)">
                    <rect x="2477.817" y="0" width="1432.671" height="783.199" style="fill:rgb(127,200,248);"/>
                </g>
                <g transform="matrix(0.767225,1.111114,-1.366038,0.624049,340.618869,100.134013)">
                    <path d="M1154.493,351.945L-675.509,351.945L-675.509,-429.512L1257.815,-429.512C1301.087,-337.629 1339.698,-243.727 1373.538,-148.2L1002.706,22.825L1154.493,351.945Z" style="fill:rgb(90,169,230);"/>
                </g>
                <g transform="matrix(2.151725,1.267887,-1.244092,1.396851,496.675818,-2574.782826)">
                    <path d="M2875.072,1624.615L3153.397,1624.615L3153.397,3274.775L1332.124,3274.775L1332.124,2561.237C1336.223,2552.524 1340.272,2543.781 1344.272,2535.009C1472.371,2254.056 1549.575,1942.853 1572.925,1624.615L1852.785,1624.615C1869.677,1683.273 1893.336,1739.968 1923.981,1792.97C2099.914,2097.256 2439.919,2165.333 2682.776,1944.898C2774.543,1861.603 2839.393,1748.956 2875.072,1624.615Z" style="fill:rgb(255,99,146);"/>
                </g>
                <g transform="matrix(1.093308,0.912794,-1.122217,0.88928,-1525.430469,927.022556)">
                    <path d="M867.447,-2442.596L867.447,937.587L-2246.064,937.587L-2246.064,-2756.834L811.919,-2756.834C818.824,-2650.749 837.343,-2545.31 867.447,-2442.596Z" style="fill:rgb(255,228,94);"/>
                </g>
                <g transform="matrix(1.566746,0,0,1.274367,-604.706072,0)">
                    <rect x="0" y="0" width="3507.874" height="2480.315" style="fill:rgb(255,228,94);"/>
                </g>
                <g transform="matrix(1.566746,0,0,1.274367,-278.21409,33.195434)">
                    <circle cx="2634.667" cy="1833.007" r="921.468" style="fill:rgb(127,200,248);"/>
                </g>
                <g transform="matrix(1.566746,0,0,1.274367,-278.21409,33.195434)">
                    <path d="M1749.104,1577.638C1786.032,1449.525 1850.036,1332.839 1934.507,1234.187C2190.025,1460.855 2526.207,1598.567 2894.301,1598.567C3103.982,1598.567 3303.309,1553.88 3483.269,1473.52C3530.18,1584.001 3556.135,1705.497 3556.135,1833.007C3556.135,2149.407 3396.323,2428.776 3153.084,2594.727L1749.104,1577.638Z" style="fill:rgb(127,200,248);"/>
                </g>
                <g transform="matrix(5.161631,0,0,4.19839,-15583.371706,-8706.867655)">
                    <path d="M3385.902,2366.47C3289.278,2502.23 3156.794,2610.728 3002.32,2678.095C2889.67,2727.222 2765.326,2754.475 2634.667,2754.475C2126.095,2754.475 1713.199,2341.579 1713.199,1833.007C1713.199,1324.434 2126.095,911.538 2634.667,911.538C3130.944,911.538 3536.115,1304.712 3555.415,1796.295C3555.894,1808.473 3556.135,1820.712 3556.135,1833.007C3556.135,1999.021 3512.138,2154.84 3435.177,2289.43C3420.005,2315.963 3403.552,2341.672 3385.902,2366.47Z" style="fill:url(#_Radial2);"/>
                </g>
                <g transform="matrix(1.566746,0,0,1.274367,-604.706072,0)">
                    <circle cx="3102.689" cy="177.307" r="1447.309" style="fill:rgb(255,99,146);"/>
                </g>
                <g transform="matrix(1.566746,0,0,1.274367,-604.706072,0)">
                    <path d="M1756.795,710.197C1691.355,545.243 1655.381,365.443 1655.381,177.307C1655.381,-258.185 1848.14,-649.011 2152.919,-914.432C2154.494,-874.31 2155.289,-833.99 2155.289,-793.485C2155.289,-246.553 2010.341,266.792 1756.795,710.197Z" style="fill:rgb(90,169,230);"/>
                </g>
                <g transform="matrix(1.566746,0,0,1.274367,-604.706072,0)">
                    <path d="M2142.896,1260.235C1974.517,1110.868 1841.167,922.871 1756.795,710.197C2010.341,266.792 2155.289,-246.553 2155.289,-793.485C2155.289,-833.99 2154.494,-874.31 2152.919,-914.432C2407.175,-1135.854 2739.39,-1270.002 3102.689,-1270.002C3901.481,-1270.002 4549.998,-621.485 4549.998,177.307C4549.998,766.417 4197.264,1273.791 3691.658,1499.568C3551.466,1169.395 3224.118,937.587 2843.055,937.587C2562.999,937.587 2311.955,1062.794 2142.896,1260.235Z" style="fill:rgb(255,99,146);"/>
                </g>
                <g transform="matrix(1.566746,0,0,1.274367,-604.706072,0)">
                    <path d="M2142.896,1260.235C2311.955,1062.794 2562.999,937.587 2843.055,937.587C3224.118,937.587 3551.466,1169.395 3691.658,1499.568C3511.698,1579.929 3312.371,1624.615 3102.689,1624.615C2734.596,1624.615 2398.413,1486.904 2142.896,1260.235Z" style="fill:rgb(90,169,230);"/>
                </g>
                <g transform="matrix(2.151725,1.267887,-1.244092,1.396851,496.675818,-2574.782826)">
                    <path d="M2875.072,1624.615C2839.393,1748.956 2774.543,1861.603 2682.776,1944.898C2439.919,2165.333 2099.914,2097.256 1923.981,1792.97C1893.336,1739.968 1869.677,1683.273 1852.785,1624.615L2875.072,1624.615Z" style="fill:rgb(90,169,230);"/>
                </g>
                <g transform="matrix(0.856471,-0.668979,3.332126,2.822366,908.828052,653.112287)">
                    <rect x="2477.817" y="0" width="1432.671" height="783.199" style="fill:rgb(127,200,248);"/>
                </g>
                <g transform="matrix(2.151725,1.267887,-1.244092,1.396851,496.675818,-2574.782826)">
                    <path d="M2875.072,1624.615L3153.397,1624.615L3153.397,3274.775L1332.124,3274.775L1149.938,2935.882C1132.48,2926.003 1145.134,2920.911 1228.112,2774.218C1278.707,2684.771 1342.338,2539.249 1344.272,2535.009C1472.371,2254.056 1549.575,1942.853 1572.925,1624.615L1852.785,1624.615C1869.677,1683.273 1893.336,1739.968 1923.981,1792.97C2099.914,2097.256 2439.919,2165.333 2682.776,1944.898C2774.543,1861.603 2839.393,1748.956 2875.072,1624.615Z" style="fill:rgb(127,200,248);"/>
                </g>
            </g>
        </g>
    </g>
    <defs>
        <radialGradient id="_Radial2" cx="0" cy="0" r="1" gradientUnits="userSpaceOnUse" gradientTransform="matrix(532.384864,315.834543,-315.834543,532.384864,2971.254286,2073.858611)"><stop offset="0" style="stop-color:rgb(60,156,232);stop-opacity:1"/><stop offset="1" style="stop-color:rgb(127,200,248);stop-opacity:1"/></radialGradient>
    </defs>
</svg>
